<svg xmlns="http://www.w3.org/2000/svg" viewBox="0 0 100 100">
  <rect fill="#fff" x="10" y="14" width="6" height="62" rx="3"/>
  <rect fill="#fff" x="84" y="14" width="6" height="62" rx="3"/>
  <rect fill="#fff" x="16" y="18" width="26" height="4" rx="2" transform="rotate(22 29 20)"/>
  <rect fill="#fff" x="58" y="18" width="26" height="4" rx="2" transform="rotate(-22 71 20)"/>
  <circle fill="#fff" cx="50" cy="30" r="7.5"/>
  <rect fill="#fff" x="43" y="36" width="14" height="24" rx="6"/>
  <rect fill="#fff" x="33" y="34" width="6" height="20" rx="3" transform="rotate(-32 36 44)"/>
  <rect fill="#fff" x="61" y="34" width="6" height="20" rx="3" transform="rotate(32 64 44)"/>
  <rect fill="#fff" x="44" y="60" width="6.5" height="18" rx="3.2"/>
  <rect fill="#fff" x="51" y="60" width="6.5" height="18" rx="3.2"/>
</svg>
