
<svg xmlns="http://www.w3.org/2000/svg" viewBox="0 0 100 100">
  <rect fill="white" x="6"  y="52" width="40" height="40" rx="4" opacity="0.5"/>
  <rect fill="white" x="6"  y="52" width="40" height="6"  rx="3"/>
  <rect fill="white" x="6"  y="86" width="40" height="6"  rx="3"/>
  <rect fill="white" x="6"  y="52" width="6"  height="40" rx="3"/>
  <circle fill="white" cx="24" cy="40" r="7"/>
  <rect fill="white" x="18" y="47" width="12" height="14" rx="4"/>
  <rect fill="white" x="44" y="18" width="48" height="7"  rx="3" transform="rotate(-45,68,21)"/>
  <rect fill="white" x="20" y="55" width="8"  height="20" rx="4" transform="rotate(-45,24,65)"/>
  <rect fill="white" x="36" y="45" width="8"  height="20" rx="4" transform="rotate(-45,40,55)"/>
  <rect fill="white" x="64" y="8"  width="14" height="22" rx="3" transform="rotate(-45,71,19)"/>
</svg>