
<svg xmlns="http://www.w3.org/2000/svg" viewBox="0 0 100 100">
  <circle fill="white" cx="50" cy="22" r="7"/>
  <rect fill="white" x="44" y="29" width="12" height="18" rx="5"/>
  <rect fill="white" x="34" y="26" width="5"  height="22" rx="2"/>
  <rect fill="white" x="61" y="26" width="5"  height="22" rx="2"/>
  <rect fill="white" x="34" y="22" width="32" height="6"  rx="3"/>
  <rect fill="white" x="37" y="45" width="5"  height="24" rx="2" transform="rotate(-30,39,57)"/>
  <rect fill="white" x="58" y="45" width="5"  height="24" rx="2" transform="rotate(30,60,57)"/>
  <rect fill="white" x="34" y="66" width="32" height="6"  rx="3"/>
  <rect fill="white" x="28" y="58" width="10" height="20" rx="3"/>
  <rect fill="white" x="62" y="58" width="10" height="20" rx="3"/>
  <rect fill="white" x="38" y="47" width="10" height="22" rx="4"/>
  <rect fill="white" x="52" y="47" width="10" height="22" rx="4"/>
</svg>